<svg width="100" height="100" viewBox="0 0 100 100" fill="none" xmlns="http://www.w3.org/2000/svg">
<path d="M100 36.0851C100 40.9442 98.1115 45.6205 94.7305 49.1086L49.0408 96.2066C47.8985 97.3948 46.5126 98.3392 44.9896 98.9941C43.4666 99.6491 41.837 99.9842 40.177 99.9995C38.5322 100.015 36.8873 99.6948 35.3491 99.0703C33.8109 98.4458 32.425 97.5166 31.2523 96.3437L3.6557 68.743C2.48299 67.5701 1.5692 66.184 0.929545 64.6455C0.30512 63.1223 -0.0147103 61.4772 0.000519556 59.8169C0.0157495 58.1566 0.350808 56.5267 1.00569 55.0035C1.66058 53.4803 2.60483 52.1094 3.79276 50.9517L50.8988 5.27035V5.28558C54.3865 1.90403 59.062 0 63.9204 0H87.5115C94.3954 0 99.9848 5.57499 99.9848 12.4752L100 36.0851Z" fill="#C7B5E3"/>
<path d="M87.3136 21.9192C87.344 24.3563 86.4302 26.7173 84.7549 28.4842C83.8868 29.3982 82.8512 30.1293 81.709 30.632C80.5667 31.1346 79.3331 31.4088 78.069 31.4241C76.8202 31.4393 75.5713 31.2108 74.4138 30.7386C73.2564 30.2664 72.2055 29.5657 71.3222 28.6823C70.4388 27.7988 69.7383 26.7478 69.2661 25.5749C68.794 24.4172 68.5656 23.1682 68.5808 21.9192C68.596 20.6701 68.8702 19.4363 69.3727 18.2787C69.8753 17.1362 70.6064 16.1004 71.5049 15.2322C73.2716 13.5567 75.6322 12.6427 78.0842 12.6732C80.521 12.7037 82.8512 13.6938 84.5874 15.415C86.2932 17.1362 87.2831 19.4668 87.3136 21.9192Z" fill="white"/>
<path d="M71.8703 50.2206C71.8703 51.0736 71.7028 51.9114 71.3829 52.6882C71.0631 53.4651 70.591 54.181 69.9818 54.775L51.6602 73.1146C50.4418 74.3332 48.8122 75.0034 47.0913 75.0034C45.3703 75.0034 43.7407 74.3332 42.5223 73.1146C41.3039 71.896 40.6338 70.2662 40.6338 68.545C40.6338 66.8389 41.3191 65.1939 42.5223 63.9753L60.8439 45.6509C61.4378 45.0569 62.1536 44.5847 62.9456 44.2496C63.7223 43.9297 64.56 43.7621 65.4128 43.7621C66.2657 43.7621 67.1033 43.9297 67.8801 44.2496C68.6568 44.5695 69.3726 45.0569 69.9666 45.6509C70.5758 46.2602 71.0479 46.9609 71.3677 47.753C71.7028 48.5298 71.8703 49.3676 71.8703 50.2206Z" fill="white"/>
<path d="M56.2443 34.5923C56.2443 36.2984 55.559 37.9434 54.3558 39.162L36.0343 57.4864C34.8311 58.7049 33.1863 59.3752 31.4653 59.3752C29.7443 59.3752 28.1147 58.6897 26.8963 57.4864C25.6779 56.2678 25.0078 54.6379 25.0078 52.9167C25.0078 51.1955 25.6932 49.5656 26.8963 48.347L45.2179 30.0227C46.4363 28.8041 48.0659 28.1339 49.7868 28.1339C51.4926 28.1339 53.1374 28.8193 54.3558 30.0227C55.5742 31.2413 56.2443 32.8863 56.2443 34.5923Z" fill="white"/>
</svg>
