<svg width="184" height="42" viewBox="0 0 184 42" fill="none" xmlns="http://www.w3.org/2000/svg">
<g clip-path="url(#clip0_973_2715)">
<path d="M53.2883 31.4517C52.5483 31.0197 52.1806 30.4957 52.1806 29.8798C52.1806 29.4846 52.2542 29.0479 52.3966 28.5745C52.5391 28.1011 52.7459 27.6553 53.0079 27.2324C53.3618 27.5634 53.8169 27.8299 54.3822 28.0276C54.9429 28.2252 55.5128 28.3263 56.0874 28.3263C56.9698 28.3263 57.5995 28.1057 57.9718 27.6645C58.3487 27.2232 58.5325 26.5844 58.5325 25.7433C58.5325 25.1687 58.4268 24.631 58.22 24.1208C58.0086 23.6152 57.6179 22.9718 57.0434 22.1996L54.0329 18.1963C53.3067 17.2495 52.8103 16.3992 52.5437 15.65C52.2771 14.9009 52.1484 14.1287 52.1484 13.3336C52.1484 11.7892 52.654 10.5575 53.6698 9.64281C54.6855 8.72817 56.1425 8.26855 58.0362 8.26855C59.6448 8.26855 60.7985 8.42482 61.4925 8.73276C62.1865 9.04071 62.5358 9.50492 62.5358 10.1208C62.5358 10.847 62.2509 11.5318 61.6763 12.1707C61.4787 12.019 61.0926 11.8674 60.5181 11.7249C59.9436 11.5824 59.3691 11.5089 58.7991 11.5089C57.9626 11.5089 57.31 11.6513 56.8457 11.9409C56.3815 12.2259 56.1517 12.6579 56.1517 13.2324C56.1517 13.7426 56.239 14.2022 56.4183 14.6205C56.593 15.0387 56.9147 15.5581 57.3789 16.174L60.5549 20.2462C61.327 21.239 61.851 22.1399 62.1268 22.9442C62.4025 23.7485 62.5404 24.6494 62.5404 25.6422C62.5404 27.5634 62.09 29.1169 61.1845 30.3073C60.2791 31.4977 58.7256 32.0952 56.5194 32.0952C55.1038 32.0998 54.0283 31.8838 53.2883 31.4517Z" fill="#1E293B"/>
<path d="M78.6684 15.4018C79.2107 15.742 79.56 16.2246 79.7255 16.8404C79.891 17.4563 79.9737 18.3066 79.9737 19.3867V31.1024C79.9737 31.346 79.9139 31.5069 79.7898 31.5804C79.6703 31.6586 79.3026 31.7091 78.6959 31.7275C78.0893 31.7505 77.2895 31.7597 76.2967 31.7597V19.4924C76.2967 18.9639 76.2324 18.6008 76.0991 18.3986C75.9658 18.2009 75.7038 18.0998 75.304 18.0998C74.8397 18.0998 74.4215 18.2009 74.0446 18.3986V31.107C74.0446 31.3506 73.994 31.5115 73.8975 31.585C73.7964 31.6632 73.4563 31.7137 72.8726 31.7321C72.2889 31.7551 71.4891 31.7643 70.4734 31.7643H70.4412H70.3768V19.3546C70.3768 18.803 70.3171 18.4445 70.193 18.2791C70.0735 18.1136 69.8115 18.0309 69.4162 18.0309C69.021 18.0309 68.5889 18.1641 68.1247 18.4261V31.1024C68.1247 31.346 68.065 31.5069 67.9409 31.5804C67.8214 31.6586 67.4629 31.7091 66.8653 31.7275C66.2678 31.7505 65.4635 31.7597 64.4478 31.7597V15.981C66.0151 15.2548 67.711 14.8871 69.5449 14.8871C70.7353 14.8871 71.6638 15.1858 72.3256 15.7787C72.9002 15.4938 73.5344 15.2731 74.2284 15.1169C74.9225 14.9652 75.5889 14.8871 76.2324 14.8871C77.3171 14.8917 78.126 15.0617 78.6684 15.4018Z" fill="#1E293B"/>
<path d="M84.1932 31.7367C83.5221 31.4931 82.9752 30.9921 82.5569 30.2292C82.1387 29.4662 81.9272 28.3723 81.9272 26.9383C81.9272 24.8654 82.2812 23.436 82.9844 22.6546C83.6922 21.8733 84.616 21.478 85.7651 21.478C86.096 21.478 86.4637 21.5148 86.8727 21.5929C87.2818 21.671 87.6173 21.7951 87.8839 21.9744V19.6901C87.8839 19.2489 87.7782 18.9271 87.5714 18.7295C87.3599 18.5318 87.0014 18.4307 86.4959 18.4307C85.88 18.4307 85.1951 18.4951 84.446 18.6284C83.6968 18.7617 83.0441 18.9271 82.4926 19.1248C82.1616 18.4859 81.9962 17.7781 81.9962 17.0059C81.9962 16.7853 82.0422 16.5647 82.1295 16.3441C82.2168 16.1234 82.3271 15.958 82.4604 15.8477C82.7454 15.6271 83.3429 15.411 84.2483 15.2042C85.1538 14.9928 86.2017 14.8917 87.3921 14.8917C88.9135 14.8917 89.989 15.195 90.6186 15.8017C91.2483 16.4084 91.5609 17.4517 91.5609 18.9271V20.4806C91.5609 25.8858 91.5057 29.4064 91.3954 31.0381C90.205 31.7459 88.6147 32.0952 86.6291 32.0952C85.6777 32.0998 84.8688 31.9757 84.1932 31.7367ZM87.8196 28.7584C87.8655 28.2528 87.8839 26.8188 87.8839 24.4563C87.6633 24.2587 87.3645 24.1576 86.9923 24.1576C86.597 24.1576 86.2982 24.3506 86.1006 24.7367C85.903 25.1228 85.8018 25.8214 85.8018 26.8372C85.8018 27.6553 85.88 28.2344 86.0316 28.5745C86.1833 28.9192 86.4729 29.0893 86.8911 29.0893C87.3094 29.0893 87.6219 28.979 87.8196 28.7584Z" fill="#1E293B"/>
<path d="M93.9094 16.3808C95.4078 15.3881 96.9429 14.8917 98.5102 14.8917C99.3697 14.8917 99.9534 15.0204 100.266 15.2731C100.574 15.5259 100.73 15.9534 100.73 16.5463C100.73 17.2725 100.611 17.9803 100.367 18.6651C100.013 18.4905 99.6041 18.3986 99.1445 18.3986C98.9239 18.3986 98.6803 18.4445 98.4183 18.5318C98.1517 18.6192 97.9127 18.7525 97.6921 18.9271L97.6599 31.107C97.6599 31.3506 97.6048 31.5115 97.4944 31.585C97.3841 31.6632 97.0256 31.7137 96.4189 31.7321C95.8122 31.7551 94.9803 31.7643 93.9186 31.7643V16.3808H93.9094Z" fill="#1E293B"/>
<path d="M104.959 31.5712C104.472 31.2173 104.141 30.7118 103.966 30.0499C103.791 29.3881 103.699 28.5148 103.699 27.4347V18.3342H101.682C101.682 17.3185 101.691 16.6152 101.714 16.2154C101.737 15.8201 101.797 15.5535 101.898 15.4202C101.999 15.2869 102.178 15.2226 102.445 15.2226H103.704V10.4242C103.704 10.0289 103.805 9.75312 104.003 9.59685C104.2 9.44517 104.527 9.34865 104.977 9.31648C105.428 9.28431 106.227 9.26592 107.376 9.26592V15.2226H110.088C110.088 16.2613 110.074 16.9691 110.056 17.3552C110.033 17.7413 109.973 17.9987 109.872 18.132C109.771 18.2653 109.601 18.3296 109.357 18.3296H107.372V27.3657C107.372 27.8943 107.418 28.2988 107.505 28.5745C107.592 28.8503 107.813 28.9882 108.167 28.9882C108.718 28.9882 109.293 28.8457 109.886 28.5561C110.042 29.2823 110.116 29.8706 110.116 30.3119C110.116 31.5023 109.114 32.0998 107.105 32.0998C106.163 32.0998 105.446 31.9206 104.959 31.5712Z" fill="#1E293B"/>
<path d="M117.106 9.26592C117.106 9.0453 117.171 8.87984 117.304 8.76953C117.437 8.65922 117.681 8.60406 118.03 8.60406H121.275C122.93 8.60406 124.277 8.98095 125.311 9.73013C126.349 10.4793 126.864 11.8352 126.864 13.8024C126.864 15.3697 126.561 16.6152 125.954 17.5437C125.347 18.4721 124.635 18.9869 123.821 19.0972C126.359 19.3638 127.627 20.9632 127.627 23.8956C127.627 26.258 127.117 28.1609 126.106 29.6041C125.09 31.0473 123.537 31.7735 121.441 31.7735H117.106V9.26592ZM121.505 17.7367C121.923 17.7367 122.25 17.4517 122.479 16.8772C122.709 16.3027 122.829 15.5443 122.829 14.5929C122.829 13.5128 122.723 12.7774 122.512 12.3913C122.3 12.0052 122.011 11.8122 121.634 11.8122H120.839V17.7367H121.505ZM121.537 28.5929C122.066 28.5929 122.484 28.2068 122.797 27.4347C123.104 26.6625 123.261 25.5916 123.261 24.2265C123.261 23.2567 123.201 22.5259 123.077 22.0433C122.957 21.5561 122.778 21.239 122.548 21.0827C122.319 20.9311 122.001 20.8529 121.606 20.8529H120.843V28.5975H121.537V28.5929Z" fill="#1E293B"/>
<path d="M129.415 16.3808C130.913 15.3881 132.449 14.8917 134.016 14.8917C134.875 14.8917 135.459 15.0204 135.772 15.2731C136.08 15.5259 136.236 15.9534 136.236 16.5463C136.236 17.2725 136.116 17.9803 135.873 18.6651C135.519 18.4905 135.11 18.3986 134.65 18.3986C134.429 18.3986 134.186 18.4445 133.924 18.5318C133.657 18.6192 133.418 18.7525 133.198 18.9271L133.166 31.107C133.166 31.3506 133.11 31.5115 133 31.585C132.89 31.6632 132.531 31.7137 131.925 31.7321C131.318 31.7551 130.486 31.7643 129.424 31.7643V16.3808H129.415Z" fill="#1E293B"/>
<path d="M139.821 31.7367C139.15 31.4931 138.603 30.9921 138.185 30.2292C137.766 29.4662 137.555 28.3723 137.555 26.9383C137.555 24.8654 137.909 23.436 138.612 22.6546C139.32 21.8733 140.244 21.478 141.393 21.478C141.724 21.478 142.091 21.5148 142.5 21.5929C142.909 21.671 143.245 21.7951 143.512 21.9744V19.6901C143.512 19.2489 143.406 18.9271 143.199 18.7295C142.988 18.5318 142.629 18.4307 142.124 18.4307C141.508 18.4307 140.823 18.4951 140.074 18.6284C139.324 18.7617 138.672 18.9271 138.12 19.1248C137.789 18.4859 137.624 17.7781 137.624 17.0059C137.624 16.7853 137.67 16.5647 137.757 16.3441C137.844 16.1234 137.955 15.958 138.088 15.8477C138.373 15.6271 138.971 15.411 139.876 15.2042C140.781 14.9928 141.829 14.8917 143.02 14.8917C144.541 14.8917 145.617 15.195 146.246 15.8017C146.876 16.4084 147.189 17.4517 147.189 18.9271V20.4806C147.189 25.8858 147.133 29.4064 147.023 31.0381C145.833 31.7459 144.242 32.0952 142.257 32.0952C141.305 32.0998 140.496 31.9757 139.821 31.7367ZM143.447 28.7584C143.493 28.2528 143.512 26.8188 143.512 24.4563C143.291 24.2587 142.992 24.1576 142.62 24.1576C142.225 24.1576 141.926 24.3506 141.728 24.7367C141.531 25.1228 141.43 25.8214 141.43 26.8372C141.43 27.6553 141.508 28.2344 141.659 28.5745C141.811 28.9192 142.101 29.0893 142.519 29.0893C142.937 29.0893 143.245 28.979 143.447 28.7584Z" fill="#1E293B"/>
<path d="M149.533 15.981C150.107 15.7144 150.907 15.4662 151.932 15.2364C152.957 15.0066 153.867 14.8871 154.662 14.8871C156.381 14.8871 157.608 15.195 158.334 15.8155C159.061 16.4314 159.428 17.5483 159.428 19.1569V31.1024C159.428 31.346 159.368 31.5069 159.244 31.5804C159.125 31.6586 158.748 31.7091 158.118 31.7275C157.489 31.7505 156.657 31.7597 155.618 31.7597V20.3198C155.618 19.4143 155.544 18.8076 155.402 18.4997C155.259 18.1917 154.965 18.0355 154.524 18.0355C154.037 18.0355 153.596 18.1687 153.2 18.4307V31.107C153.2 31.3506 153.141 31.5115 153.017 31.585C152.897 31.6632 152.539 31.7137 151.941 31.7321C151.344 31.7551 150.539 31.7643 149.523 31.7643V15.981H149.533Z" fill="#1E293B"/>
<path d="M164.309 31.5529C163.546 31.1898 162.93 30.4314 162.457 29.2869C161.984 28.1379 161.745 26.4649 161.745 24.2587C161.745 21.0368 162.158 18.6697 162.986 17.1622C163.813 15.65 164.921 14.8963 166.313 14.8963C167.131 14.8963 167.779 15.0939 168.267 15.4938V9.06828C168.267 8.51674 168.359 8.13526 168.547 7.92843C168.735 7.717 169.053 7.58831 169.508 7.53316C169.958 7.478 170.772 7.45042 171.939 7.45042V31.1116C170.441 31.7735 168.827 32.1044 167.108 32.1044C166.001 32.0998 165.072 31.916 164.309 31.5529ZM168.267 28.524V18.2009C168.092 18.0906 167.848 18.0355 167.54 18.0355C167.255 18.0355 166.989 18.1504 166.745 18.3848C166.502 18.6192 166.299 19.1569 166.134 20.0072C165.969 20.8575 165.886 22.1215 165.886 23.7945C165.886 25.7157 165.987 27.0394 166.185 27.7656C166.382 28.4918 166.704 28.8595 167.145 28.8595C167.6 28.8549 167.977 28.7446 168.267 28.524Z" fill="#1E293B"/>
<path d="M173.925 30.1464C173.925 29.5075 174.122 28.8227 174.522 28.0965C175.428 28.5837 176.397 28.8227 177.436 28.8227C178.011 28.8227 178.438 28.694 178.728 28.4412C179.013 28.1884 179.16 27.8391 179.16 27.3979C179.16 26.736 178.907 26.1202 178.397 25.5456L175.519 22.503C174.968 21.9284 174.559 21.3355 174.297 20.715C174.035 20.0946 173.902 19.5246 173.902 18.9961C173.902 17.7367 174.334 16.7393 175.193 15.9993C176.053 15.2594 177.445 14.8917 179.362 14.8917C180.994 14.8917 182.083 15.0939 182.621 15.503C183.163 15.912 183.43 16.4038 183.43 16.9737C183.43 17.2587 183.37 17.562 183.246 17.8838C183.126 18.2055 182.952 18.4859 182.731 18.7295C181.871 18.2653 180.911 18.0355 179.854 18.0355C178.797 18.0355 178.263 18.3802 178.263 19.0604C178.263 19.281 178.328 19.5108 178.461 19.7544C178.594 19.998 178.856 20.3152 179.256 20.715L181.706 23.197C182.345 23.9462 182.781 24.6126 183.011 25.2009C183.241 25.7846 183.361 26.497 183.361 27.3336C183.361 28.8135 182.864 29.9764 181.871 30.8267C180.879 31.677 179.532 32.0998 177.836 32.0998C175.225 32.0998 173.925 31.4471 173.925 30.1464Z" fill="#1E293B"/>
<path d="M35.9744 0H6.02561C2.69796 0 0 2.69796 0 6.02561V35.9744C0 39.302 2.69796 42 6.02561 42H35.979C39.3066 42 42.0046 39.302 42.0046 35.9744V6.02561C42 2.69796 39.302 0 35.9744 0ZM36.0893 16.7991C36.0893 18.2653 35.5194 19.6763 34.499 20.7288L20.7104 34.9403C20.3657 35.2988 19.9475 35.5837 19.4879 35.7814C19.0282 35.979 18.5364 36.0801 18.0355 36.0847C17.5391 36.0893 17.0427 35.9928 16.5785 35.8043C16.1142 35.6159 15.696 35.3355 15.3421 34.9816L7.01379 26.6533C6.65988 26.2994 6.38411 25.8812 6.19107 25.4169C6.00263 24.9573 5.90611 24.4609 5.9107 23.9599C5.9153 23.459 6.01641 22.9672 6.21405 22.5076C6.41169 22.0479 6.69665 21.6343 7.05515 21.285L21.2712 7.50099V7.50558C22.3237 6.48523 23.7347 5.9107 25.2009 5.9107H32.3204C34.3979 5.9107 36.0847 7.59291 36.0847 9.67498L36.0893 16.7991Z" fill="url(#paint0_linear_973_2715)"/>
<path d="M32.2607 12.5246C32.2699 13.26 31.9941 13.9724 31.4886 14.5056C31.2266 14.7814 30.914 15.002 30.5693 15.1536C30.2246 15.3053 29.8523 15.3881 29.4708 15.3926C29.0939 15.3972 28.717 15.3283 28.3677 15.1858C28.0184 15.0433 27.7013 14.8319 27.4347 14.5653C27.1681 14.2988 26.9567 13.9816 26.8142 13.6277C26.6717 13.2784 26.6028 12.9015 26.6074 12.5246C26.612 12.1477 26.6947 11.7754 26.8464 11.4261C26.9981 11.0814 27.2187 10.7689 27.4899 10.5069C28.023 10.0013 28.7354 9.72554 29.4754 9.73473C30.2108 9.74393 30.914 10.0427 31.438 10.562C31.9528 11.0814 32.2515 11.7846 32.2607 12.5246Z" fill="#3E2B66"/>
<path d="M27.6001 21.0643C27.6001 21.3217 27.5496 21.5745 27.4531 21.8089C27.3565 22.0433 27.214 22.2594 27.0302 22.4386L21.501 27.9724C21.1333 28.3401 20.6415 28.5424 20.1221 28.5424C19.6028 28.5424 19.111 28.3401 18.7433 27.9724C18.3756 27.6047 18.1733 27.1129 18.1733 26.5936C18.1733 26.0788 18.3802 25.5824 18.7433 25.2147L24.2725 19.6855C24.4517 19.5062 24.6678 19.3638 24.9068 19.2626C25.1412 19.1661 25.394 19.1156 25.6513 19.1156C25.9087 19.1156 26.1615 19.1661 26.3959 19.2626C26.6303 19.3592 26.8464 19.5062 27.0256 19.6855C27.2095 19.8693 27.3519 20.0808 27.4485 20.3198C27.5496 20.5542 27.6001 20.807 27.6001 21.0643Z" fill="#3E2B66"/>
<path d="M22.8846 16.3487C22.8846 16.8634 22.6777 17.3598 22.3146 17.7275L16.7854 23.2567C16.4223 23.6244 15.9259 23.8267 15.4065 23.8267C14.8872 23.8267 14.3954 23.6198 14.0277 23.2567C13.66 22.889 13.4578 22.3972 13.4578 21.8779C13.4578 21.3585 13.6646 20.8667 14.0277 20.499L19.5569 14.9698C19.9246 14.6021 20.4164 14.3999 20.9358 14.3999C21.4505 14.3999 21.9469 14.6067 22.3146 14.9698C22.6823 15.3375 22.8846 15.8339 22.8846 16.3487Z" fill="#3E2B66"/>
</g>
<defs>
<linearGradient id="paint0_linear_973_2715" x1="0" y1="0" x2="42" y2="42" gradientUnits="userSpaceOnUse">
<stop stop-color="#322357"/>
<stop offset="1" stop-color="#6C49A3"/>
</linearGradient>
<clipPath id="clip0_973_2715">
<rect width="184" height="42" fill="white"/>
</clipPath>
</defs>
</svg>
