<svg xmlns="http://www.w3.org/2000/svg" height="28" width="28" viewBox="0 0 91.38 91.38" fill="#1069aa"><path d="M78.27 0H13.11C5.87 0 0 5.87 0 13.11v65.16c0 7.24 5.87 13.11 13.11 13.11h65.17c7.24 0 13.11-5.87 13.11-13.11V13.11A13.13 13.13 0 0 0 78.27 0zm.25 36.55c0 3.19-1.24 6.26-3.46 8.55l-30 30.92a8.16 8.16 0 0 1-2.66 1.83c-1 .43-2.07.65-3.16.66a8.24 8.24 0 0 1-3.17-.61c-1.01-.41-1.92-1.02-2.69-1.79L15.26 57.99a8.28 8.28 0 0 1-1.79-2.69 8.17 8.17 0 0 1-.61-3.17c.01-1.09.23-2.16.66-3.16s1.05-1.9 1.83-2.66l30.93-29.99v.01c2.29-2.22 5.36-3.47 8.55-3.47h15.49a8.19 8.19 0 0 1 8.19 8.19v15.5zm-8.33-9.3c.02 1.6-.58 3.15-1.68 4.31-.57.6-1.25 1.08-2 1.41a6.11 6.11 0 0 1-2.39.52c-.82.01-1.64-.14-2.4-.45s-1.45-.77-2.03-1.35-1.04-1.27-1.35-2.04c-.31-.76-.46-1.58-.45-2.4a6.19 6.19 0 0 1 .52-2.39 6.34 6.34 0 0 1 1.4-2 6.16 6.16 0 0 1 4.32-1.68c1.6.02 3.13.67 4.27 1.8a6.18 6.18 0 0 1 1.79 4.27zM60.05 45.83c0 .56-.11 1.11-.32 1.62s-.52.98-.92 1.37L46.78 60.86a4.22 4.22 0 0 1-7.24-3 4.28 4.28 0 0 1 1.24-3l12.03-12.03c.39-.39.86-.7 1.38-.92.51-.21 1.06-.32 1.62-.32s1.11.11 1.62.32.98.53 1.37.92c.4.4.71.86.92 1.38a4.08 4.08 0 0 1 .33 1.62zM49.79 35.57a4.28 4.28 0 0 1-1.24 3L36.52 50.6c-.79.8-1.87 1.24-3 1.24s-2.2-.45-3-1.24a4.22 4.22 0 0 1-1.24-3c0-1.13.45-2.2 1.24-3l12.03-12.03a4.22 4.22 0 0 1 3-1.24 4.28 4.28 0 0 1 3 1.24 4.24 4.24 0 0 1 1.24 3z"/></svg>