<svg xmlns="http://www.w3.org/2000/svg" xmlns:xlink="http://www.w3.org/1999/xlink" viewBox="0 0 399.07 91.38" xmlns:v="https://vecta.io/nano"><g fill="#fff"><path d="M115.94 68.43c-1.61-.94-2.41-2.08-2.41-3.42 0-.86.16-1.81.47-2.84s.76-2 1.33-2.92c.77.72 1.76 1.3 2.99 1.73a11.11 11.11 0 0 0 3.71.65c1.92 0 3.29-.48 4.1-1.44.82-.96 1.22-2.35 1.22-4.18 0-1.25-.23-2.42-.68-3.53-.46-1.1-1.31-2.5-2.56-4.18l-6.55-8.71c-1.58-2.06-2.66-3.91-3.24-5.54s-.86-3.31-.86-5.04c0-3.36 1.1-6.04 3.31-8.03s5.38-2.99 9.5-2.99c3.5 0 6.01.34 7.52 1.01s2.27 1.68 2.27 3.02c0 1.58-.62 3.07-1.87 4.46-.43-.33-1.27-.66-2.52-.97s-2.5-.47-3.74-.47c-1.82 0-3.24.31-4.25.94-1.01.62-1.51 1.56-1.51 2.81 0 1.11.19 2.11.58 3.02.38.91 1.08 2.04 2.09 3.38l6.91 8.86c1.68 2.16 2.82 4.12 3.42 5.87s.9 3.71.9 5.87c0 4.18-.98 7.56-2.95 10.15s-5.35 3.89-10.15 3.89c-3.08.01-5.42-.46-7.03-1.4zm55.22-34.92c1.18.74 1.94 1.79 2.3 3.13s.54 3.19.54 5.54v25.49c0 .53-.13.88-.4 1.04-.26.17-1.06.28-2.38.32l-5.22.07V42.41c0-1.15-.14-1.94-.43-2.38-.29-.43-.86-.65-1.73-.65-1.01 0-1.92.22-2.74.65v27.65c0 .53-.11.88-.32 1.04-.22.17-.96.28-2.23.32l-5.22.07h-.07-.14v-27c0-1.2-.13-1.98-.4-2.34-.26-.36-.83-.54-1.69-.54s-1.8.29-2.81.86v27.58c0 .53-.13.88-.4 1.04-.26.17-1.04.28-2.34.32l-5.26.07V34.77c3.41-1.58 7.1-2.38 11.09-2.38 2.59 0 4.61.65 6.05 1.94 1.25-.62 2.63-1.1 4.14-1.44 1.51-.33 2.96-.5 4.36-.5 2.36.01 4.12.38 5.3 1.12zm12.02 35.54c-1.46-.53-2.65-1.62-3.56-3.28s-1.37-4.04-1.37-7.16c0-4.51.77-7.62 2.3-9.32 1.54-1.7 3.55-2.56 6.05-2.56.72 0 1.52.08 2.41.25s1.62.44 2.2.83v-4.97c0-.96-.23-1.66-.68-2.09-.46-.43-1.24-.65-2.34-.65-1.34 0-2.83.14-4.46.43s-3.05.65-4.25 1.08c-.72-1.39-1.08-2.93-1.08-4.61 0-.48.1-.96.29-1.44s.43-.84.72-1.08c.62-.48 1.92-.95 3.89-1.4 1.97-.46 4.25-.68 6.84-.68 3.31 0 5.65.66 7.02 1.98s2.05 3.59 2.05 6.8v3.38c0 11.76-.12 19.42-.36 22.97-2.59 1.54-6.05 2.3-10.37 2.3-2.07.01-3.83-.26-5.3-.78zm7.89-6.48c.1-1.1.14-4.22.14-9.36-.48-.43-1.13-.65-1.94-.65-.86 0-1.51.42-1.94 1.26s-.65 2.36-.65 4.57c0 1.78.17 3.04.5 3.78.33.75.96 1.12 1.87 1.12s1.59-.24 2.02-.72z"/><use xlink:href="#B"/><path d="M228.36 68.69c-1.06-.77-1.78-1.87-2.16-3.31s-.58-3.34-.58-5.69v-19.8h-4.39l.07-4.61c.05-.86.18-1.44.4-1.73s.61-.43 1.19-.43h2.74V22.68c0-.86.22-1.46.65-1.8.43-.33 1.14-.54 2.12-.61l5.22-.11v12.96h5.9l-.07 4.64c-.05.84-.18 1.4-.4 1.69s-.59.43-1.12.43h-4.32v19.66c0 1.15.1 2.03.29 2.63s.67.9 1.44.9c1.2 0 2.45-.31 3.74-.94.34 1.58.5 2.86.5 3.82 0 2.59-2.18 3.89-6.55 3.89-2.05 0-3.61-.39-4.67-1.15zm26.43-48.53c0-.48.14-.84.43-1.08s.82-.36 1.58-.36h7.06c3.6 0 6.53.82 8.78 2.45 2.26 1.63 3.38 4.58 3.38 8.86 0 3.41-.66 6.12-1.98 8.14s-2.87 3.14-4.64 3.38c5.52.58 8.28 4.06 8.28 10.44 0 5.14-1.11 9.28-3.31 12.42-2.21 3.14-5.59 4.72-10.15 4.72h-9.43V20.16h0zm9.57 18.43c.91 0 1.62-.62 2.12-1.87s.76-2.9.76-4.97c0-2.35-.23-3.95-.69-4.79s-1.09-1.26-1.91-1.26h-1.73v12.89h1.45zm.07 23.62c1.15 0 2.06-.84 2.74-2.52.67-1.68 1.01-4.01 1.01-6.98 0-2.11-.13-3.7-.4-4.75-.26-1.06-.65-1.75-1.15-2.09-.5-.33-1.19-.5-2.05-.5h-1.66v16.85h1.51v-.01z"/><use xlink:href="#B" x="77.25"/><path d="M304.21 69.05c-1.46-.53-2.65-1.62-3.56-3.28s-1.37-4.04-1.37-7.16c0-4.51.77-7.62 2.3-9.32 1.54-1.7 3.55-2.56 6.05-2.56.72 0 1.52.08 2.41.25s1.62.44 2.2.83v-4.97c0-.96-.23-1.66-.68-2.09-.46-.43-1.24-.65-2.34-.65-1.34 0-2.83.14-4.46.43s-3.05.65-4.25 1.08c-.72-1.39-1.08-2.93-1.08-4.61 0-.48.1-.96.29-1.44s.43-.84.72-1.08c.62-.48 1.92-.95 3.89-1.4 1.97-.46 4.25-.68 6.84-.68 3.31 0 5.65.66 7.02 1.98s2.05 3.59 2.05 6.8v3.38c0 11.76-.12 19.42-.36 22.97-2.59 1.54-6.05 2.3-10.37 2.3-2.07.01-3.83-.26-5.3-.78zm7.89-6.48c.1-1.1.14-4.22.14-9.36-.48-.43-1.13-.65-1.94-.65-.86 0-1.51.42-1.94 1.26s-.65 2.36-.65 4.57c0 1.78.17 3.04.5 3.78.33.75.96 1.12 1.87 1.12s1.58-.24 2.02-.72zm13.24-27.8c1.25-.58 2.99-1.12 5.22-1.62s4.21-.76 5.94-.76c3.74 0 6.41.67 7.99 2.02 1.58 1.34 2.38 3.77 2.38 7.27v25.99c0 .53-.13.88-.4 1.04-.26.17-1.08.28-2.45.32l-5.44.07V44.21c0-1.97-.16-3.29-.47-3.96s-.95-1.01-1.91-1.01c-1.06 0-2.02.29-2.88.86v27.58c0 .53-.13.88-.4 1.04-.26.17-1.04.28-2.34.32l-5.26.07V34.77h.02zm32.15 33.88c-1.66-.79-3-2.44-4.03-4.93-1.03-2.5-1.55-6.14-1.55-10.94 0-7.01.9-12.16 2.7-15.44 1.8-3.29 4.21-4.93 7.24-4.93 1.78 0 3.19.43 4.25 1.3V19.73c0-1.2.2-2.03.61-2.48.41-.46 1.1-.74 2.09-.86.98-.12 2.75-.18 5.29-.18v51.48c-3.26 1.44-6.77 2.16-10.51 2.16-2.41-.01-4.43-.41-6.09-1.2zm8.61-6.59V39.6c-.38-.24-.91-.36-1.58-.36-.62 0-1.2.25-1.73.76s-.97 1.68-1.33 3.53-.54 4.6-.54 8.24c0 4.18.22 7.06.65 8.64s1.13 2.38 2.09 2.38c.99-.01 1.81-.25 2.44-.73zm12.31 3.53c0-1.39.43-2.88 1.3-4.46 1.97 1.06 4.08 1.58 6.34 1.58 1.25 0 2.18-.28 2.81-.83.62-.55.94-1.31.94-2.27 0-1.44-.55-2.78-1.66-4.03l-6.26-6.62c-1.2-1.25-2.09-2.54-2.66-3.89s-.86-2.59-.86-3.74c0-2.74.94-4.91 2.81-6.52s4.9-2.41 9.07-2.41c3.55 0 5.92.44 7.09 1.33 1.18.89 1.76 1.96 1.76 3.2 0 .62-.13 1.28-.4 1.98a5.65 5.65 0 0 1-1.12 1.84c-1.87-1.01-3.96-1.51-6.26-1.51s-3.46.75-3.46 2.23c0 .48.14.98.43 1.51s.86 1.22 1.73 2.09l5.33 5.4c1.39 1.63 2.34 3.08 2.84 4.36.5 1.27.76 2.82.76 4.64 0 3.22-1.08 5.75-3.24 7.6s-5.09 2.77-8.78 2.77c-5.68 0-8.51-1.42-8.51-4.25zM78.27 0H13.11C5.87 0 0 5.87 0 13.11v65.16c0 7.24 5.87 13.11 13.11 13.11h65.17c7.24 0 13.11-5.87 13.11-13.11V13.11A13.13 13.13 0 0 0 78.27 0zm.25 36.55c0 3.19-1.24 6.26-3.46 8.55l-30 30.92a8.16 8.16 0 0 1-2.66 1.83c-1 .43-2.07.65-3.16.66a8.24 8.24 0 0 1-3.17-.61c-1.01-.41-1.92-1.02-2.69-1.79L15.26 57.99a8.28 8.28 0 0 1-1.79-2.69 8.17 8.17 0 0 1-.61-3.17c.01-1.09.23-2.16.66-3.16s1.05-1.9 1.83-2.66l30.93-29.99v.01c2.29-2.22 5.36-3.47 8.55-3.47h15.49a8.19 8.19 0 0 1 8.19 8.19l.01 15.5h0zm-8.33-9.3c.02 1.6-.58 3.15-1.68 4.31-.57.6-1.25 1.08-2 1.41a6.11 6.11 0 0 1-2.39.52c-.82.01-1.64-.14-2.4-.45s-1.45-.77-2.03-1.35-1.04-1.27-1.35-2.04c-.31-.76-.46-1.58-.45-2.4a6.19 6.19 0 0 1 .52-2.39 6.34 6.34 0 0 1 1.4-2 6.16 6.16 0 0 1 4.32-1.68c1.6.02 3.13.67 4.27 1.8a6.18 6.18 0 0 1 1.79 4.27zM60.05 45.83c0 .56-.11 1.11-.32 1.62s-.52.98-.92 1.37L46.78 60.86a4.22 4.22 0 0 1-7.24-3 4.28 4.28 0 0 1 1.24-3l12.03-12.03c.39-.39.86-.7 1.38-.92.51-.21 1.06-.32 1.62-.32s1.11.11 1.62.32.98.53 1.37.92c.4.4.71.86.92 1.38a4.08 4.08 0 0 1 .33 1.62zM49.79 35.57a4.28 4.28 0 0 1-1.24 3L36.52 50.6c-.79.8-1.87 1.24-3 1.24s-2.2-.45-3-1.24a4.22 4.22 0 0 1-1.24-3c0-1.13.45-2.2 1.24-3l12.03-12.03a4.22 4.22 0 0 1 3-1.24 4.28 4.28 0 0 1 3 1.24 4.24 4.24 0 0 1 1.24 3z"/></g><defs ><path id="B" d="M204.32 35.64c3.26-2.16 6.6-3.24 10.01-3.24 1.87 0 3.14.28 3.82.83.67.55 1.01 1.48 1.01 2.77 0 1.58-.26 3.12-.79 4.61-.77-.38-1.66-.58-2.66-.58-.48 0-1.01.1-1.58.29-.58.19-1.1.48-1.58.86l-.07 26.5c0 .53-.12.88-.36 1.04-.24.17-1.02.28-2.34.32-1.32.05-3.13.07-5.44.07V35.64h-.02z"/></defs></svg>